REM DIRINDEX 1\2\4,1\2\5,1\3\6,1\3\7,1\3\8
REM DIRNAME cjc092,folder01,folder02,folder03,folder04,folder05,folder06,folder07
TITLE ""
FILE "LEVEL2-006-midashigo.mp3" MP3
  TRACK 01 AUDIO
    TITLE "0:"
    INDEX 01 00:00:00
  TRACK 02 AUDIO
    TITLE "6:cjc092_1081"
    INDEX 01 00:00:01
  TRACK 03 AUDIO
    TITLE "0:"
    INDEX 01 00:03:00
  TRACK 04 AUDIO
    TITLE "7:cjc092_1082"
    INDEX 01 00:03:59
  TRACK 05 AUDIO
    TITLE "8:cjc092_1083"
    INDEX 01 00:05:22
  TRACK 06 AUDIO
    TITLE "0:"
    INDEX 01 00:08:42
  TRACK 07 AUDIO
    TITLE "7:cjc092_1084"
    INDEX 01 00:09:04
  TRACK 08 AUDIO
    TITLE "8:cjc092_1085"
    INDEX 01 00:10:49
  TRACK 09 AUDIO
    TITLE "0:"
    INDEX 01 00:12:24
  TRACK 10 AUDIO
    TITLE "7:cjc092_1086"
    INDEX 01 00:12:61
  TRACK 11 AUDIO
    TITLE "8:cjc092_1087"
    INDEX 01 00:14:06
  TRACK 12 AUDIO
    TITLE "0:"
    INDEX 01 00:16:16
  TRACK 13 AUDIO
    TITLE "7:cjc092_1088"
    INDEX 01 00:16:51
  TRACK 14 AUDIO
    TITLE "8:cjc092_1089"
    INDEX 01 00:18:07
  TRACK 15 AUDIO
    TITLE "0:"
    INDEX 01 00:22:56
  TRACK 16 AUDIO
    TITLE "7:cjc092_1090"
    INDEX 01 00:23:16
  TRACK 17 AUDIO
    TITLE "8:cjc092_1091"
    INDEX 01 00:24:47
  TRACK 18 AUDIO
    TITLE "0:"
    INDEX 01 00:26:34
  TRACK 19 AUDIO
    TITLE "7:cjc092_1092"
    INDEX 01 00:26:69
  TRACK 20 AUDIO
    TITLE "8:cjc092_1093"
    INDEX 01 00:28:23
  TRACK 21 AUDIO
    TITLE "0:"
    INDEX 01 00:31:69
  TRACK 22 AUDIO
    TITLE "7:cjc092_1094"
    INDEX 01 00:32:35
  TRACK 23 AUDIO
    TITLE "8:cjc092_1095"
    INDEX 01 00:33:50
  TRACK 24 AUDIO
    TITLE "0:"
    INDEX 01 00:37:32
  TRACK 25 AUDIO
    TITLE "7:cjc092_1096"
    INDEX 01 00:37:67
  TRACK 26 AUDIO
    TITLE "8:cjc092_1097"
    INDEX 01 00:39:21
  TRACK 27 AUDIO
    TITLE "0:"
    INDEX 01 00:41:04
  TRACK 28 AUDIO
    TITLE "7:cjc092_1098"
    INDEX 01 00:41:44
  TRACK 29 AUDIO
    TITLE "8:cjc092_1099"
    INDEX 01 00:43:05
  TRACK 30 AUDIO
    TITLE "0:"
    INDEX 01 00:45:02
  TRACK 31 AUDIO
    TITLE "7:cjc092_1100"
    INDEX 01 00:45:39
  TRACK 32 AUDIO
    TITLE "8:cjc092_1101"
    INDEX 01 00:46:64
  TRACK 33 AUDIO
    TITLE "0:"
    INDEX 01 00:48:14
  TRACK 34 AUDIO
    TITLE "7:cjc092_1102"
    INDEX 01 00:48:51
  TRACK 35 AUDIO
    TITLE "8:cjc092_1103"
    INDEX 01 00:50:15
  TRACK 36 AUDIO
    TITLE "0:"
    INDEX 01 00:52:26
  TRACK 37 AUDIO
    TITLE "7:cjc092_1104"
    INDEX 01 00:52:67
  TRACK 38 AUDIO
    TITLE "8:cjc092_1105"
    INDEX 01 00:54:29
  TRACK 39 AUDIO
    TITLE "0:"
    INDEX 01 00:57:19
  TRACK 40 AUDIO
    TITLE "7:cjc092_1106"
    INDEX 01 00:57:50
  TRACK 41 AUDIO
    TITLE "8:cjc092_1107"
    INDEX 01 00:59:08
  TRACK 42 AUDIO
    TITLE "0:"
    INDEX 01 01:04:58
  TRACK 43 AUDIO
    TITLE "7:cjc092_1108"
    INDEX 01 01:05:19
  TRACK 44 AUDIO
    TITLE "8:cjc092_1109"
    INDEX 01 01:06:63
  TRACK 45 AUDIO
    TITLE "0:"
    INDEX 01 01:08:27
  TRACK 46 AUDIO
    TITLE "7:cjc092_1110"
    INDEX 01 01:08:62
  TRACK 47 AUDIO
    TITLE "8:cjc092_1111"
    INDEX 01 01:10:33
  TRACK 48 AUDIO
    TITLE "0:"
    INDEX 01 01:12:28
  TRACK 49 AUDIO
    TITLE "7:cjc092_1112"
    INDEX 01 01:12:68
  TRACK 50 AUDIO
    TITLE "8:cjc092_1113"
    INDEX 01 01:14:43
  TRACK 51 AUDIO
    TITLE "0:"
    INDEX 01 01:17:14
  TRACK 52 AUDIO
    TITLE "7:cjc092_1114"
    INDEX 01 01:17:51
  TRACK 53 AUDIO
    TITLE "8:cjc092_1115"
    INDEX 01 01:19:13
  TRACK 54 AUDIO
    TITLE "0:"
    INDEX 01 01:23:07
  TRACK 55 AUDIO
    TITLE "7:cjc092_1116"
    INDEX 01 01:23:40
  TRACK 56 AUDIO
    TITLE "8:cjc092_1117"
    INDEX 01 01:24:63
  TRACK 57 AUDIO
    TITLE "0:"
    INDEX 01 01:29:21
  TRACK 58 AUDIO
    TITLE "7:cjc092_1118"
    INDEX 01 01:29:60
  TRACK 59 AUDIO
    TITLE "8:cjc092_1119"
    INDEX 01 01:31:12
  TRACK 60 AUDIO
    TITLE "0:"
    INDEX 01 01:34:36
  TRACK 61 AUDIO
    TITLE "7:cjc092_1120"
    INDEX 01 01:34:71
  TRACK 62 AUDIO
    TITLE "8:cjc092_1121"
    INDEX 01 01:36:37
  TRACK 63 AUDIO
    TITLE "0:"
    INDEX 01 01:39:74
